<svg xmlns="http://www.w3.org/2000/svg" width="375" height="527" viewBox="0 0 375 527">
    <g fill="none" opacity=".04" transform="translate(-27)">
        <path fill="#F2F2F2" d="M181.518 314.377L642.778 314.377 642.778 577.567 181.518 577.567z" transform="rotate(16.685 412.148 445.972)"/>
        <path fill="#3F3D56" d="M595.945 641.552L0 458.406 141.055.552 737 183.698 595.945 641.552zM3.3 456.725L594.162 638.31 733.7 185.38 142.838 3.795 3.3 456.725z" opacity=".2"/>
        <path fill="#2F2E41" d="M215 153.552H379V340.552H215zM471 707.552H231v-88.968c.04-20.89 3.757-41.61 10.983-61.213.365-1 .73-1.986 1.112-2.97 10.634-27.628 24.461-43.849 24.461-43.849 96.954 54.016 155.762 4.766 155.762 4.766l10.522 42.419.763 3.082 27.989 112.83.763 3.098L471 707.552z"/>
        <path fill="#FFB8B8" d="M470 306.25l-33.766 58.414v.016l-1.126 1.954-77.713 69.918-95.16-65.15L221 318.962s6.344-20.658 28.548-23.836c5.852-.842 10.816-1.668 15.336-2.622 3.077-.651 5.948-1.35 8.755-2.145 8.707-2.463 16.748-5.816 28.246-11.123 20.618-9.534-6.344-39.726-6.344-39.726l55.51-34.959s24.646 80.247 67.864 79.532c.635 0 1.27-.032 1.92-.08 2.378-.175 4.646-.254 6.803-.27C465.734 283.48 470 306.25 470 306.25z"/>
        <path fill="#3F3D56" d="M277 350.552l-12-57.868c3.176-.648 6.14-1.342 9.037-2.132l2.963 60z"/>
        <circle cx="299.5" cy="186.052" r="60.5" fill="#FFB8B8"/>
        <path fill="#FFB8B8" d="M230.88 309.552l-9.528 9.528s-14.292 128.632 0 190.565l66.694 171.508s17.468 60.346 55.579 47.642c38.111-12.705-31.76-82.578-31.76-82.578L262.64 511.233V342.901l-31.76-33.349zM446.949 292.552l23.846 14.28s20.667 71.405 3.18 169.784l-27.026 187.238s-15.897 71.404-49.282 53.95c-33.384-17.454 22.257-76.164 22.257-76.164l14.307-145.983 3.18-152.329 9.538-50.776z"/>
        <path fill="#3F3D56" d="M349.398 402.026l-74.47-61.798-15.844 38.03s-15.845 158.456-3.169 155.286c12.676-3.169 14.26-17.43 25.351-6.338 11.091 11.092 80.807 26.938 90.314 17.43 9.507-9.507 55.456-23.768 55.456-23.768s19.013-14.261 12.675-33.276c-6.337-19.014 0-22.183 1.585-30.106 1.584-7.923 0-91.905 0-91.905l-22.183-38.029-69.715 74.474z"/>
        <path fill="#E27098" d="M351.83 296.036c14.032-1.76 26.202-10.772 36.17-26.784l-2.677-1.7c-9.434 15.154-20.829 23.67-33.866 25.313-23.167 2.917-44.066-16.927-44.274-17.128l-2.183 2.31c.83.803 19.262 18.311 41.639 18.311h.043v25.274c-4.032.412-7.101 3.842-7.103 7.936-.001 4.095 3.065 7.527 7.098 7.942 4.032.416 7.721-2.32 8.538-6.33.817-4.011-1.504-7.996-5.371-9.223v-25.735c.66-.05 1.32-.102 1.985-.186z"/>
        <path fill="#2F2E41" d="M296.302 82.632s-61.065 7.62-74.737 44.386c-13.671 36.766-37.596 56.068-37.596 56.068s-37.687 26.145-18.843 72.817c0 0-58.627 39.32-19.892 74.247 0 0-2.279 34.928 20.507 58.826 0 0 18.228 9.192 11.393 14.707-6.836 5.515 45.57 1.838 41.014-47.796-4.558-49.635 26.203-84.598 26.203-84.598s-29.621-64.352-15.95-86.412c8.3-13.393 11.865-23.381 18.756-29.162 3.837-3.142 7.396-6.608 10.637-10.36 4.243-5.031 12.832-11.884 26.432-8.227 5.803 1.483 11.176 4.305 15.688 8.238 13.622 12.064 28.364 22.806 44.025 32.083 7.365 4.362 15.078 9.29 22.239 14.543 13.261 9.726 2.305 30.339-10.954 47.596-19.617 25.531-20.005 61.398.514 86.214.603.73 1.218 1.445 1.845 2.146 20.063 22.424-5.782 41.97-7.28 44.483-3.417 5.737-17.067 41.96 39.317 42.121 0 0 13.09-27.414 31.319-43.959 18.228-16.545 4.557-64.34 4.557-64.34s27.342-16.545-2.279-56.988c0 0 15.668-49.224-9.396-73.122 0 0-40.048-106.38-117.52-93.511z"/>
        <ellipse cx="365" cy="187.552" fill="#FFB8B8" rx="8" ry="12"/>
        <path fill="#E27098" d="M365.5 237.552c-9.098 0-16.5-9.645-16.5-21.5s7.402-21.5 16.5-21.5c.454 0 .822.373.822.834 0 .46-.368.833-.822.833-8.192 0-14.856 8.897-14.856 19.833 0 10.936 6.664 19.833 14.856 19.833 8.191 0 14.856-8.897 14.856-19.833 0-9.75-3.447-16.882-9.222-19.078-.424-.163-.639-.642-.48-1.073.16-.43.633-.649 1.058-.488 6.442 2.45 10.288 10.166 10.288 20.64 0 11.854-7.402 21.499-16.5 21.499z"/>
        <path fill="#FFB8B8" d="M372 191.552c-.51 2.72-1.92 5.186-4 7"/>
    </g>
</svg>
